# xmcd
#
# Track frame offsets:
#	150
#	16193
#	37225
#	52263
#	72403
#	86446
#	98032
#	122727
#	139321
#	154044
#	170565
#	199545
#	214050
#	231578
#
# Disc length: 3297 seconds
#
# Revision: 0
# Processed by: cddbd v1.5.2PL0 Copyright (c) Steve Scherf et al.
# Submitted via: EZCDAudioConverter 2.5.0.1
#
DISCID=cb0cdf0e
DTITLE=Various Artist - Vive la France
DYEAR=1900
DGENRE=Other
TTITLE0=Pascal Danel - Kilimandjaro
TTITLE1=Stéphanie - Ouragan
TTITLE2=Jean Francois Michael - Adieu jolie Candy
TTITLE3=Stone and Charden - Il y a du soleil sur la France
TTITLE4=Eric Charden - Le monde est gris, le monde est bleu
TTITLE5=Richard Anthony - Donne-moi ma chance
TTITLE6=Fabienne Thibeault - Le monde est stone
TTITLE7=Peter and Sloane - Besoin de rien, envie de toi
TTITLE8=Elegance - Vacances, j'oublie tout
TTITLE9=Alain Turban - Santa Monica
TTITLE10=Les Vagabonds - Le temps de yéyés
TTITLE11=Yves Montand - A Paris
TTITLE12=Linda de Souza - L'etrangère
TTITLE13=Pirre Vassiliu - Qui c'est celui-la
EXTD=
EXTT0=
EXTT1=
EXTT2=
EXTT3=
EXTT4=
EXTT5=
EXTT6=
EXTT7=
EXTT8=
EXTT9=
EXTT10=
EXTT11=
EXTT12=
EXTT13=
PLAYORDER=
